<svg xmlns="http://www.w3.org/2000/svg" viewBox="0 0 200 240" fill="white">
  <!-- Trunk -->
  <path d="M 100 195 L 100 135" stroke="white" stroke-width="7" stroke-linecap="round" fill="none"/>

  <!-- Root flare -->
  <path d="M 100 195 Q 93 200 84 196" stroke="white" stroke-width="3.5" stroke-linecap="round" fill="none"/>
  <path d="M 100 195 Q 107 200 116 196" stroke="white" stroke-width="3.5" stroke-linecap="round" fill="none"/>

  <!-- Main Y split -->
  <path d="M 100 135 Q 95 125 80 110" stroke="white" stroke-width="6" stroke-linecap="round" fill="none"/>
  <path d="M 100 135 Q 105 125 120 110" stroke="white" stroke-width="6" stroke-linecap="round" fill="none"/>
  <!-- Center continuation -->
  <path d="M 100 135 Q 100 125 100 112" stroke="white" stroke-width="4" stroke-linecap="round" fill="none"/>

  <!-- LEFT SIDE -->
  <!-- L1: outer spread -->
  <path d="M 80 110 Q 68 100 55 90" stroke="white" stroke-width="4.5" stroke-linecap="round" fill="none"/>
  <!-- L1: inner -->
  <path d="M 80 110 Q 80 100 84 90" stroke="white" stroke-width="4.5" stroke-linecap="round" fill="none"/>

  <!-- L2 outer: far left -->
  <path d="M 55 90 Q 44 82 32 75" stroke="white" stroke-width="3.5" stroke-linecap="round" fill="none"/>
  <!-- L2 outer: mid left -->
  <path d="M 55 90 Q 56 80 62 72" stroke="white" stroke-width="3.5" stroke-linecap="round" fill="none"/>

  <!-- L2 inner: left -->
  <path d="M 84 90 Q 76 80 70 72" stroke="white" stroke-width="3.5" stroke-linecap="round" fill="none"/>
  <!-- L2 inner: right -->
  <path d="M 84 90 Q 88 80 92 72" stroke="white" stroke-width="3.5" stroke-linecap="round" fill="none"/>

  <!-- L3: far left tips -->
  <path d="M 32 75 Q 24 70 18 64" stroke="white" stroke-width="2.5" stroke-linecap="round" fill="none"/>
  <path d="M 32 75 Q 34 68 40 60" stroke="white" stroke-width="2.5" stroke-linecap="round" fill="none"/>

  <!-- L3: mid-left tips -->
  <path d="M 62 72 Q 55 65 50 56" stroke="white" stroke-width="2.5" stroke-linecap="round" fill="none"/>
  <path d="M 62 72 Q 66 64 70 56" stroke="white" stroke-width="2.5" stroke-linecap="round" fill="none"/>

  <!-- L3: inner-left tips -->
  <path d="M 70 72 Q 66 62 62 54" stroke="white" stroke-width="2.5" stroke-linecap="round" fill="none"/>
  <path d="M 70 72 Q 74 64 78 56" stroke="white" stroke-width="2.5" stroke-linecap="round" fill="none"/>

  <!-- L3: center-left tips -->
  <path d="M 92 72 Q 88 62 84 54" stroke="white" stroke-width="2.5" stroke-linecap="round" fill="none"/>
  <path d="M 92 72 Q 96 64 98 56" stroke="white" stroke-width="2.5" stroke-linecap="round" fill="none"/>

  <!-- CENTER top -->
  <path d="M 100 112 Q 96 100 92 90" stroke="white" stroke-width="3" stroke-linecap="round" fill="none"/>
  <path d="M 100 112 Q 104 100 108 90" stroke="white" stroke-width="3" stroke-linecap="round" fill="none"/>
  <path d="M 100 112 Q 100 100 100 88" stroke="white" stroke-width="3" stroke-linecap="round" fill="none"/>

  <!-- Center top tips -->
  <path d="M 100 88 Q 98 78 96 68" stroke="white" stroke-width="2.5" stroke-linecap="round" fill="none"/>
  <path d="M 100 88 Q 102 78 104 68" stroke="white" stroke-width="2.5" stroke-linecap="round" fill="none"/>

  <!-- RIGHT SIDE (mirror) -->
  <!-- R1: outer spread -->
  <path d="M 120 110 Q 132 100 145 90" stroke="white" stroke-width="4.5" stroke-linecap="round" fill="none"/>
  <!-- R1: inner -->
  <path d="M 120 110 Q 120 100 116 90" stroke="white" stroke-width="4.5" stroke-linecap="round" fill="none"/>

  <!-- R2 outer: far right -->
  <path d="M 145 90 Q 156 82 168 75" stroke="white" stroke-width="3.5" stroke-linecap="round" fill="none"/>
  <!-- R2 outer: mid right -->
  <path d="M 145 90 Q 144 80 138 72" stroke="white" stroke-width="3.5" stroke-linecap="round" fill="none"/>

  <!-- R2 inner: right -->
  <path d="M 116 90 Q 124 80 130 72" stroke="white" stroke-width="3.5" stroke-linecap="round" fill="none"/>
  <!-- R2 inner: left -->
  <path d="M 116 90 Q 112 80 108 72" stroke="white" stroke-width="3.5" stroke-linecap="round" fill="none"/>

  <!-- R3: far right tips -->
  <path d="M 168 75 Q 176 70 182 64" stroke="white" stroke-width="2.5" stroke-linecap="round" fill="none"/>
  <path d="M 168 75 Q 166 68 160 60" stroke="white" stroke-width="2.5" stroke-linecap="round" fill="none"/>

  <!-- R3: mid-right tips -->
  <path d="M 138 72 Q 145 65 150 56" stroke="white" stroke-width="2.5" stroke-linecap="round" fill="none"/>
  <path d="M 138 72 Q 134 64 130 56" stroke="white" stroke-width="2.5" stroke-linecap="round" fill="none"/>

  <!-- R3: inner-right tips -->
  <path d="M 130 72 Q 134 62 138 54" stroke="white" stroke-width="2.5" stroke-linecap="round" fill="none"/>
  <path d="M 130 72 Q 126 64 122 56" stroke="white" stroke-width="2.5" stroke-linecap="round" fill="none"/>

  <!-- R3: center-right tips -->
  <path d="M 108 72 Q 112 62 116 54" stroke="white" stroke-width="2.5" stroke-linecap="round" fill="none"/>
  <path d="M 108 72 Q 104 64 102 56" stroke="white" stroke-width="2.5" stroke-linecap="round" fill="none"/>

  <!-- DOTS at branch tips -->
  <!-- Top center -->
  <circle cx="96" cy="64" r="4.5"/>
  <circle cx="104" cy="64" r="4.5"/>

  <!-- Far left -->
  <circle cx="18" cy="60" r="4"/>
  <circle cx="40" cy="56" r="4.5"/>

  <!-- Mid left -->
  <circle cx="50" cy="52" r="4"/>
  <circle cx="70" cy="52" r="4"/>

  <!-- Inner left -->
  <circle cx="62" cy="50" r="4"/>
  <circle cx="78" cy="52" r="4"/>

  <!-- Center left -->
  <circle cx="84" cy="50" r="4"/>
  <circle cx="98" cy="52" r="4"/>

  <!-- Far right -->
  <circle cx="182" cy="60" r="4"/>
  <circle cx="160" cy="56" r="4.5"/>

  <!-- Mid right -->
  <circle cx="150" cy="52" r="4"/>
  <circle cx="130" cy="52" r="4"/>

  <!-- Inner right -->
  <circle cx="138" cy="50" r="4"/>
  <circle cx="122" cy="52" r="4"/>

  <!-- Center right -->
  <circle cx="116" cy="50" r="4"/>
  <circle cx="102" cy="52" r="4"/>

  <!-- Junction dots -->
  <circle cx="32" cy="75" r="3"/>
  <circle cx="55" cy="90" r="3"/>
  <circle cx="62" cy="72" r="2.5"/>
  <circle cx="70" cy="72" r="2.5"/>
  <circle cx="80" cy="110" r="3"/>
  <circle cx="84" cy="90" r="2.5"/>
  <circle cx="92" cy="72" r="2.5"/>
  <circle cx="100" cy="88" r="2.5"/>
  <circle cx="168" cy="75" r="3"/>
  <circle cx="145" cy="90" r="3"/>
  <circle cx="138" cy="72" r="2.5"/>
  <circle cx="130" cy="72" r="2.5"/>
  <circle cx="120" cy="110" r="3"/>
  <circle cx="116" cy="90" r="2.5"/>
  <circle cx="108" cy="72" r="2.5"/>

  <!-- POPULUS text -->
  <text x="100" y="230" text-anchor="middle" fill="white" font-family="Georgia, 'Times New Roman', serif" font-size="24" font-weight="400" letter-spacing="8">POPULUS</text>
</svg>
